<?xml version="1.0" standalone="no"?>
<!DOCTYPE svg PUBLIC "-//W3C//DTD SVG 20010904//EN"
 "http://www.w3.org/TR/2001/REC-SVG-20010904/DTD/svg10.dtd">
<svg version="1.0" xmlns="http://www.w3.org/2000/svg"
 width="100.000000pt" height="100.000000pt" viewBox="0 0 100.000000 100.000000"
 preserveAspectRatio="xMidYMid meet">

<g transform="translate(0.000000,100.000000) scale(0.100000,-0.100000)"
fill="#000000" stroke="none">
<path d="M508 954 c-15 -15 -7 -24 42 -49 68 -34 126 -95 159 -164 22 -47 26
-70 26 -141 0 -73 -4 -93 -28 -142 -35 -72 -93 -130 -165 -165 -49 -24 -69
-28 -142 -28 -71 0 -94 4 -141 26 -69 33 -130 91 -164 159 -31 62 -51 61 -48
-3 5 -152 133 -318 289 -377 115 -42 268 -34 376 21 58 30 153 122 188 184 63
110 75 267 30 389 -44 116 -149 221 -267 266 -58 22 -144 35 -155 24z"/>
</g>
</svg>
